# Blender 3.3.0
# www.blender.org
mtllib SpiderModel.mtl
o Spider
v -0.260000 -0.101600 0.260000
v 0.260000 -0.101600 0.260000
v -0.260000 -0.101600 -0.260000
v 0.260000 -0.101600 -0.260000
v -0.260000 0.418400 0.260000
v 0.260000 0.418400 0.260000
v -0.260000 0.418400 -0.260000
v 0.260000 0.418400 -0.260000
v -0.195000 -0.036600 -0.260000
v 0.195000 -0.036600 -0.260000
v -0.195000 -0.036600 -0.650000
v 0.195000 -0.036600 -0.650000
v -0.195000 0.353400 -0.260000
v 0.195000 0.353400 -0.260000
v -0.195000 0.353400 -0.650000
v 0.195000 0.353400 -0.650000
v -0.325000 -0.101600 -0.650000
v 0.325000 -0.101600 -0.650000
v -0.325000 -0.101600 -1.430000
v 0.325000 -0.101600 -1.430000
v -0.325000 0.418400 -0.650000
v 0.325000 0.418400 -0.650000
v -0.325000 0.418400 -1.430000
v 0.325000 0.418400 -1.430000
v 0.203290 0.146115 -0.419235
v 0.851945 -0.187768 -1.067890
v 0.143626 0.203157 -0.508260
v 0.792281 -0.130726 -1.156915
v 0.271640 0.244914 -0.401740
v 0.920295 -0.088969 -1.050394
v 0.211976 0.301955 -0.490765
v 0.860631 -0.031928 -1.139419
v 0.186200 0.146871 -0.426478
v 1.072278 -0.187012 -0.663902
v 0.179111 0.203359 -0.532371
v 1.065190 -0.130524 -0.769795
v 0.236156 0.244711 -0.377629
v 1.122234 -0.089172 -0.615053
v 0.229067 0.301200 -0.483522
v 1.115146 -0.032683 -0.720946
v 0.172595 0.151040 -0.426888
v 1.058674 -0.182843 -0.189464
v 0.215772 0.189997 -0.533240
v 1.101850 -0.143886 -0.295816
v 0.199495 0.258074 -0.376760
v 1.085574 -0.075809 -0.139336
v 0.242671 0.297031 -0.483112
v 1.128750 -0.036852 -0.245688
v 0.163230 0.151034 -0.448173
v 0.811884 -0.182849 0.200482
v 0.253805 0.189994 -0.518694
v 0.902459 -0.143889 0.129961
v 0.161462 0.258076 -0.391306
v 0.810116 -0.075806 0.257348
v 0.252037 0.297037 -0.461828
v 0.900691 -0.036846 0.186827
v -0.150596 0.151034 -0.448173
v -0.799251 -0.182849 0.200482
v -0.241172 0.189994 -0.518694
v -0.889826 -0.143889 0.129961
v -0.148828 0.258076 -0.391306
v -0.797483 -0.075807 0.257348
v -0.239404 0.297037 -0.461827
v -0.888058 -0.036846 0.186827
v -0.173566 0.146871 -0.426478
v -1.059645 -0.187012 -0.663902
v -0.166478 0.203359 -0.532371
v -1.052556 -0.130524 -0.769795
v -0.223522 0.244711 -0.377629
v -1.109601 -0.089172 -0.615053
v -0.216434 0.301200 -0.483522
v -1.102513 -0.032683 -0.720946
v -0.190657 0.146115 -0.419235
v -0.839312 -0.187768 -1.067890
v -0.130993 0.203157 -0.508260
v -0.779648 -0.130726 -1.156915
v -0.259007 0.244914 -0.401740
v -0.907662 -0.088969 -1.050394
v -0.199343 0.301955 -0.490765
v -0.847998 -0.031928 -1.139419
v -0.159962 0.151040 -0.426888
v -1.046041 -0.182843 -0.189464
v -0.203138 0.189997 -0.533240
v -1.089217 -0.143886 -0.295816
v -0.186862 0.258074 -0.376760
v -1.072941 -0.075809 -0.139336
v -0.230038 0.297031 -0.483112
v -1.116117 -0.036852 -0.245688
vn -0.0000 -1.0000 -0.0000
vn -0.0000 1.0000 -0.0000
vn -0.0000 -0.0000 1.0000
vn 1.0000 -0.0000 -0.0000
vn -0.0000 -0.0000 -1.0000
vn -1.0000 -0.0000 -0.0000
vn -0.5630 -0.8138 -0.1441
vn 0.5630 0.8138 0.1441
vn 0.4915 -0.4698 0.7333
vn 0.6645 -0.3420 -0.6645
vn -0.4915 0.4698 -0.7333
vn -0.6645 0.3420 0.6645
vn -0.4155 -0.8138 -0.4063
vn 0.4155 0.8138 0.4063
vn 0.0590 -0.4698 0.8808
vn 0.9077 -0.3420 -0.2432
vn -0.0590 0.4698 -0.8808
vn -0.9077 0.3420 0.2432
vn -0.2219 -0.8830 -0.4135
vn 0.2219 0.8830 0.4135
vn -0.3562 -0.3214 0.8774
vn 0.9077 -0.3420 0.2432
vn 0.3562 0.3214 -0.8774
vn -0.9077 0.3420 -0.2432
vn 0.0146 -0.8830 -0.4691
vn -0.0146 0.8830 0.4691
vn -0.7472 -0.3214 0.5817
vn 0.6645 -0.3420 0.6645
vn 0.7472 0.3214 -0.5817
vn -0.6645 0.3420 -0.6645
vn -0.0146 -0.8830 -0.4691
vn 0.0146 0.8830 0.4691
vn 0.7472 -0.3214 0.5817
vn -0.6645 -0.3420 0.6645
vn -0.7472 0.3214 -0.5817
vn 0.6645 0.3420 -0.6645
vn 0.4155 -0.8138 -0.4063
vn -0.4155 0.8138 0.4063
vn -0.0590 -0.4698 0.8808
vn -0.9077 -0.3420 -0.2432
vn 0.0590 0.4698 -0.8808
vn 0.9077 0.3420 0.2432
vn 0.5630 -0.8138 -0.1441
vn -0.5630 0.8138 0.1441
vn -0.4915 -0.4698 0.7333
vn -0.6645 -0.3420 -0.6645
vn 0.4915 0.4698 -0.7333
vn 0.6645 0.3420 0.6645
vn 0.2219 -0.8830 -0.4135
vn -0.2219 0.8830 0.4135
vn 0.3562 -0.3214 0.8774
vn -0.9077 -0.3420 0.2432
vn -0.3562 0.3214 -0.8774
vn 0.9077 0.3420 -0.2432
vt 0.750000 0.812500
vt 0.625000 0.687500
vt 0.875000 0.812500
vt 0.750000 0.687500
vt 0.750000 0.937500
vt 1.000000 0.687500
vt 0.500000 0.687500
vt 0.875000 0.937500
vt 0.875000 0.687500
vt 0.625000 0.812500
vt 0.750000 0.812500
vt 0.625000 0.937500
vt 1.000000 0.812500
vt 0.500000 0.812500
vt 0.750000 0.937500
vt 0.875000 0.812500
vt 0.187500 0.906120
vt 0.093862 0.812500
vt 0.281278 0.906120
vt 0.187500 0.812500
vt 0.187500 1.000000
vt 0.375000 0.812500
vt 0.000000 0.812500
vt 0.281278 1.000000
vt 0.281278 0.812500
vt 0.093862 0.906120
vt 0.187500 0.906120
vt 0.093862 1.000000
vt 0.375000 0.906120
vt 0.000000 0.906120
vt 0.187500 1.000000
vt 0.281278 0.906120
vt 0.328107 0.640609
vt 0.187500 0.500000
vt 0.449985 0.640609
vt 0.328107 0.500000
vt 0.328107 0.812500
vt 0.656219 0.500000
vt 0.000000 0.500000
vt 0.450000 0.812500
vt 0.515702 0.500000
vt 0.187500 0.640609
vt 0.328107 0.640609
vt 0.187500 0.812500
vt 0.656219 0.640609
vt 0.000000 0.640609
vt 0.328107 0.812500
vt 0.515702 0.640609
vt 0.562500 0.968711
vt 0.562500 0.937500
vt 0.812500 0.968711
vt 0.812500 0.968711
vt 0.812500 0.937500
vt 0.281219 0.968711
vt 0.562500 1.000000
vt 0.312500 1.000000
vt 0.812500 0.937500
vt 0.812500 1.000000
vt 0.281219 0.937500
vt 0.562500 1.000000
vt 0.312500 0.937500
vt 0.562500 0.968711
vt 0.843707 0.968711
vt 0.562500 0.937500
vt 0.812500 0.968711
vt 0.312500 0.968711
vt 0.312500 0.968711
vt 0.843707 0.937500
vt 0.312500 0.937500
vt 0.562500 0.968711
vt 0.562500 0.968711
vt 0.562500 0.937500
vt 0.812500 0.968711
vt 0.812500 0.968711
vt 0.812500 0.937500
vt 0.281219 0.968711
vt 0.562500 1.000000
vt 0.312500 1.000000
vt 0.812500 0.937500
vt 0.812500 1.000000
vt 0.281219 0.937500
vt 0.562500 1.000000
vt 0.312500 0.937500
vt 0.562500 0.968711
vt 0.843707 0.968711
vt 0.562500 0.937500
vt 0.812500 0.968711
vt 0.312500 0.968711
vt 0.312500 0.968711
vt 0.843707 0.937500
vt 0.312500 0.937500
vt 0.562500 0.968711
vt 0.562500 0.968711
vt 0.562500 0.937500
vt 0.812500 0.968711
vt 0.812500 0.968711
vt 0.812500 0.937500
vt 0.281219 0.968711
vt 0.562500 1.000000
vt 0.312500 1.000000
vt 0.812500 0.937500
vt 0.812500 1.000000
vt 0.281219 0.937500
vt 0.562500 1.000000
vt 0.312500 0.937500
vt 0.562500 0.968711
vt 0.843707 0.968711
vt 0.562500 0.937500
vt 0.812500 0.968711
vt 0.312500 0.968711
vt 0.312500 0.968711
vt 0.843707 0.937500
vt 0.312500 0.937500
vt 0.562500 0.968711
vt 0.562500 0.968711
vt 0.562500 0.937500
vt 0.812500 0.968711
vt 0.812500 0.968711
vt 0.812500 0.937500
vt 0.281219 0.968711
vt 0.562500 1.000000
vt 0.312500 1.000000
vt 0.812500 0.937500
vt 0.812500 1.000000
vt 0.281219 0.937500
vt 0.562500 1.000000
vt 0.312500 0.937500
vt 0.562500 0.968711
vt 0.843707 0.968711
vt 0.562500 0.937500
vt 0.812500 0.968711
vt 0.312500 0.968711
vt 0.312500 0.968711
vt 0.843707 0.937500
vt 0.312500 0.937500
vt 0.562500 0.968711
vt 0.562500 0.968711
vt 0.562500 0.937500
vt 0.812500 0.968711
vt 0.812500 0.968711
vt 0.812500 0.937500
vt 0.281219 0.968711
vt 0.562500 1.000000
vt 0.312500 1.000000
vt 0.812500 0.937500
vt 0.812500 1.000000
vt 0.281219 0.937500
vt 0.562500 1.000000
vt 0.312500 0.937500
vt 0.562500 0.968711
vt 0.843707 0.968711
vt 0.562500 0.937500
vt 0.812500 0.968711
vt 0.312500 0.968711
vt 0.312500 0.968711
vt 0.843707 0.937500
vt 0.312500 0.937500
vt 0.562500 0.968711
vt 0.562500 0.968711
vt 0.562500 0.937500
vt 0.812500 0.968711
vt 0.812500 0.968711
vt 0.812500 0.937500
vt 0.281219 0.968711
vt 0.562500 1.000000
vt 0.312500 1.000000
vt 0.812500 0.937500
vt 0.812500 1.000000
vt 0.281219 0.937500
vt 0.562500 1.000000
vt 0.312500 0.937500
vt 0.562500 0.968711
vt 0.843707 0.968711
vt 0.562500 0.937500
vt 0.812500 0.968711
vt 0.312500 0.968711
vt 0.312500 0.968711
vt 0.843707 0.937500
vt 0.312500 0.937500
vt 0.562500 0.968711
vt 0.562500 0.968711
vt 0.562500 0.937500
vt 0.812500 0.968711
vt 0.812500 0.968711
vt 0.812500 0.937500
vt 0.281219 0.968711
vt 0.562500 1.000000
vt 0.312500 1.000000
vt 0.812500 0.937500
vt 0.812500 1.000000
vt 0.281219 0.937500
vt 0.562500 1.000000
vt 0.312500 0.937500
vt 0.562500 0.968711
vt 0.843707 0.968711
vt 0.562500 0.937500
vt 0.812500 0.968711
vt 0.312500 0.968711
vt 0.312500 0.968711
vt 0.843707 0.937500
vt 0.312500 0.937500
vt 0.562500 0.968711
vt 0.562500 0.968711
vt 0.562500 0.937500
vt 0.812500 0.968711
vt 0.812500 0.968711
vt 0.812500 0.937500
vt 0.281219 0.968711
vt 0.562500 1.000000
vt 0.312500 1.000000
vt 0.812500 0.937500
vt 0.812500 1.000000
vt 0.281219 0.937500
vt 0.562500 1.000000
vt 0.312500 0.937500
vt 0.562500 0.968711
vt 0.843707 0.968711
vt 0.562500 0.937500
vt 0.812500 0.968711
vt 0.312500 0.968711
vt 0.312500 0.968711
vt 0.843707 0.937500
vt 0.312500 0.937500
vt 0.562500 0.968711
s 1
usemtl 02_-_Default.002
f 1/1/1 3/5/1 4/8/1 2/3/1
f 5/10/2 6/11/2 8/15/2 7/12/2
f 1/2/3 2/4/3 6/11/3 5/10/3
f 2/4/4 4/9/4 8/16/4 6/11/4
f 4/9/5 3/6/5 7/13/5 8/16/5
f 3/7/6 1/2/6 5/10/6 7/14/6
f 9/17/1 11/21/1 12/24/1 10/19/1
f 13/26/2 14/27/2 16/31/2 15/28/2
f 9/18/3 10/20/3 14/27/3 13/26/3
f 10/20/4 12/25/4 16/32/4 14/27/4
f 12/25/5 11/22/5 15/29/5 16/32/5
f 11/23/6 9/18/6 13/26/6 15/30/6
f 17/33/1 19/37/1 20/40/1 18/35/1
f 21/42/2 22/43/2 24/47/2 23/44/2
f 17/34/3 18/36/3 22/43/3 21/42/3
f 18/36/4 20/41/4 24/48/4 22/43/4
f 20/41/5 19/38/5 23/45/5 24/48/5
f 19/39/6 17/34/6 21/42/6 23/46/6
f 25/49/7 27/55/7 28/58/7 26/52/7
f 29/61/8 30/64/8 32/70/8 31/67/8
f 25/50/9 26/53/9 30/65/9 29/62/9
f 26/54/10 28/59/10 32/69/10 30/66/10
f 28/60/11 27/56/11 31/67/11 32/70/11
f 27/57/12 25/51/12 29/63/12 31/68/12
f 33/71/13 35/77/13 36/80/13 34/74/13
f 37/83/14 38/86/14 40/92/14 39/89/14
f 33/72/15 34/75/15 38/87/15 37/84/15
f 34/76/16 36/81/16 40/91/16 38/88/16
f 36/82/17 35/78/17 39/89/17 40/92/17
f 35/79/18 33/73/18 37/85/18 39/90/18
f 41/93/19 43/99/19 44/102/19 42/96/19
f 45/105/20 46/108/20 48/114/20 47/111/20
f 41/94/21 42/97/21 46/109/21 45/106/21
f 42/98/22 44/103/22 48/113/22 46/110/22
f 44/104/23 43/100/23 47/111/23 48/114/23
f 43/101/24 41/95/24 45/107/24 47/112/24
f 49/115/25 51/121/25 52/124/25 50/118/25
f 53/127/26 54/130/26 56/136/26 55/133/26
f 49/116/27 50/119/27 54/131/27 53/128/27
f 50/120/28 52/125/28 56/135/28 54/132/28
f 52/126/29 51/122/29 55/133/29 56/136/29
f 51/123/30 49/117/30 53/129/30 55/134/30
f 57/137/31 58/140/31 60/146/31 59/143/31
f 61/149/32 63/155/32 64/158/32 62/152/32
f 57/138/33 61/150/33 62/153/33 58/141/33
f 58/142/34 62/154/34 64/157/34 60/147/34
f 60/148/35 64/158/35 63/155/35 59/144/35
f 59/145/36 63/156/36 61/151/36 57/139/36
f 65/159/37 66/162/37 68/168/37 67/165/37
f 69/171/38 71/177/38 72/180/38 70/174/38
f 65/160/39 69/172/39 70/175/39 66/163/39
f 66/164/40 70/176/40 72/179/40 68/169/40
f 68/170/41 72/180/41 71/177/41 67/166/41
f 67/167/42 71/178/42 69/173/42 65/161/42
f 73/181/43 74/184/43 76/190/43 75/187/43
f 77/193/44 79/199/44 80/202/44 78/196/44
f 73/182/45 77/194/45 78/197/45 74/185/45
f 74/186/46 78/198/46 80/201/46 76/191/46
f 76/192/47 80/202/47 79/199/47 75/188/47
f 75/189/48 79/200/48 77/195/48 73/183/48
f 81/203/49 82/206/49 84/212/49 83/209/49
f 85/215/50 87/221/50 88/224/50 86/218/50
f 81/204/51 85/216/51 86/219/51 82/207/51
f 82/208/52 86/220/52 88/223/52 84/213/52
f 84/214/53 88/224/53 87/221/53 83/210/53
f 83/211/54 87/222/54 85/217/54 81/205/54
